<svg width="576" height="157" viewBox="0 0 576 157" fill="none" xmlns="http://www.w3.org/2000/svg">
<path d="M178.4 89.28C176.453 89.28 174.693 88.9467 173.12 88.28C171.573 87.6133 170.347 86.6533 169.44 85.4C168.533 84.1467 168.067 82.6667 168.04 80.96H174.04C174.12 82.1067 174.52 83.0133 175.24 83.68C175.987 84.3467 177 84.68 178.28 84.68C179.587 84.68 180.613 84.3733 181.36 83.76C182.107 83.12 182.48 82.2933 182.48 81.28C182.48 80.4533 182.227 79.7733 181.72 79.24C181.213 78.7067 180.573 78.2933 179.8 78C179.053 77.68 178.013 77.3333 176.68 76.96C174.867 76.4267 173.387 75.9067 172.24 75.4C171.12 74.8667 170.147 74.08 169.32 73.04C168.52 71.9733 168.12 70.56 168.12 68.8C168.12 67.1467 168.533 65.7067 169.36 64.48C170.187 63.2533 171.347 62.32 172.84 61.68C174.333 61.0133 176.04 60.68 177.96 60.68C180.84 60.68 183.173 61.3867 184.96 62.8C186.773 64.1867 187.773 66.1333 187.96 68.64H181.8C181.747 67.68 181.333 66.8933 180.56 66.28C179.813 65.64 178.813 65.32 177.56 65.32C176.467 65.32 175.587 65.6 174.92 66.16C174.28 66.72 173.96 67.5333 173.96 68.6C173.96 69.3467 174.2 69.9733 174.68 70.48C175.187 70.96 175.8 71.36 176.52 71.68C177.267 71.9733 178.307 72.32 179.64 72.72C181.453 73.2533 182.933 73.7867 184.08 74.32C185.227 74.8533 186.213 75.6533 187.04 76.72C187.867 77.7867 188.28 79.1867 188.28 80.92C188.28 82.4133 187.893 83.8 187.12 85.08C186.347 86.36 185.213 87.3867 183.72 88.16C182.227 88.9067 180.453 89.28 178.4 89.28ZM195.975 64.2C194.988 64.2 194.162 63.8933 193.495 63.28C192.855 62.64 192.535 61.8533 192.535 60.92C192.535 59.9867 192.855 59.2133 193.495 58.6C194.162 57.96 194.988 57.64 195.975 57.64C196.962 57.64 197.775 57.96 198.415 58.6C199.082 59.2133 199.415 59.9867 199.415 60.92C199.415 61.8533 199.082 62.64 198.415 63.28C197.775 63.8933 196.962 64.2 195.975 64.2ZM198.735 66.84V89H193.135V66.84H198.735ZM210.788 71.44V82.16C210.788 82.9067 210.961 83.4533 211.308 83.8C211.681 84.12 212.294 84.28 213.148 84.28H215.748V89H212.228C207.508 89 205.148 86.7067 205.148 82.12V71.44H202.508V66.84H205.148V61.36H210.788V66.84H215.748V71.44H210.788ZM240.376 77.44C240.376 78.24 240.322 78.96 240.216 79.6H224.016C224.149 81.2 224.709 82.4533 225.696 83.36C226.682 84.2667 227.896 84.72 229.336 84.72C231.416 84.72 232.896 83.8267 233.776 82.04H239.816C239.176 84.1733 237.949 85.9333 236.136 87.32C234.322 88.68 232.096 89.36 229.456 89.36C227.322 89.36 225.402 88.8933 223.696 87.96C222.016 87 220.696 85.6533 219.736 83.92C218.802 82.1867 218.336 80.1867 218.336 77.92C218.336 75.6267 218.802 73.6133 219.736 71.88C220.669 70.1467 221.976 68.8133 223.656 67.88C225.336 66.9467 227.269 66.48 229.456 66.48C231.562 66.48 233.442 66.9333 235.096 67.84C236.776 68.7467 238.069 70.04 238.976 71.72C239.909 73.3733 240.376 75.28 240.376 77.44ZM234.576 75.84C234.549 74.4 234.029 73.2533 233.016 72.4C232.002 71.52 230.762 71.08 229.296 71.08C227.909 71.08 226.736 71.5067 225.776 72.36C224.842 73.1867 224.269 74.3467 224.056 75.84H234.576ZM271.234 61.08V65.6H259.594V72.76H268.514V77.2H259.594V89H253.994V61.08H271.234ZM285.045 89.36C282.912 89.36 280.992 88.8933 279.285 87.96C277.579 87 276.232 85.6533 275.245 83.92C274.285 82.1867 273.805 80.1867 273.805 77.92C273.805 75.6533 274.299 73.6533 275.285 71.92C276.299 70.1867 277.672 68.8533 279.405 67.92C281.139 66.96 283.072 66.48 285.205 66.48C287.339 66.48 289.272 66.96 291.005 67.92C292.739 68.8533 294.099 70.1867 295.085 71.92C296.099 73.6533 296.605 75.6533 296.605 77.92C296.605 80.1867 296.085 82.1867 295.045 83.92C294.032 85.6533 292.645 87 290.885 87.96C289.152 88.8933 287.205 89.36 285.045 89.36ZM285.045 84.48C286.059 84.48 287.005 84.24 287.885 83.76C288.792 83.2533 289.512 82.5067 290.045 81.52C290.579 80.5333 290.845 79.3333 290.845 77.92C290.845 75.8133 290.285 74.2 289.165 73.08C288.072 71.9333 286.725 71.36 285.125 71.36C283.525 71.36 282.179 71.9333 281.085 73.08C280.019 74.2 279.485 75.8133 279.485 77.92C279.485 80.0267 280.005 81.6533 281.045 82.8C282.112 83.92 283.445 84.48 285.045 84.48ZM306.313 70.28C307.033 69.1067 307.966 68.1867 309.113 67.52C310.286 66.8533 311.62 66.52 313.113 66.52V72.4H311.633C309.873 72.4 308.54 72.8133 307.633 73.64C306.753 74.4667 306.313 75.9067 306.313 77.96V89H300.713V66.84H306.313V70.28ZM336.176 61.08C339.11 61.08 341.683 61.6533 343.896 62.8C346.136 63.9467 347.856 65.5867 349.056 67.72C350.283 69.8267 350.896 72.28 350.896 75.08C350.896 77.88 350.283 80.3333 349.056 82.44C347.856 84.52 346.136 86.1333 343.896 87.28C341.683 88.4267 339.11 89 336.176 89H326.416V61.08H336.176ZM335.976 84.24C338.91 84.24 341.176 83.44 342.776 81.84C344.376 80.24 345.176 77.9867 345.176 75.08C345.176 72.1733 344.376 69.9067 342.776 68.28C341.176 66.6267 338.91 65.8 335.976 65.8H332.016V84.24H335.976ZM375.688 77.44C375.688 78.24 375.635 78.96 375.528 79.6H359.328C359.461 81.2 360.021 82.4533 361.008 83.36C361.995 84.2667 363.208 84.72 364.648 84.72C366.728 84.72 368.208 83.8267 369.088 82.04H375.128C374.488 84.1733 373.261 85.9333 371.448 87.32C369.635 88.68 367.408 89.36 364.768 89.36C362.635 89.36 360.715 88.8933 359.008 87.96C357.328 87 356.008 85.6533 355.048 83.92C354.115 82.1867 353.648 80.1867 353.648 77.92C353.648 75.6267 354.115 73.6133 355.048 71.88C355.981 70.1467 357.288 68.8133 358.968 67.88C360.648 66.9467 362.581 66.48 364.768 66.48C366.875 66.48 368.755 66.9333 370.408 67.84C372.088 68.7467 373.381 70.04 374.288 71.72C375.221 73.3733 375.688 75.28 375.688 77.44ZM369.888 75.84C369.861 74.4 369.341 73.2533 368.328 72.4C367.315 71.52 366.075 71.08 364.608 71.08C363.221 71.08 362.048 71.5067 361.088 72.36C360.155 73.1867 359.581 74.3467 359.368 75.84H369.888ZM389.016 83.84L394.616 66.84H400.576L392.376 89H385.576L377.416 66.84H383.416L389.016 83.84ZM424.321 77.44C424.321 78.24 424.268 78.96 424.161 79.6H407.961C408.094 81.2 408.654 82.4533 409.641 83.36C410.628 84.2667 411.841 84.72 413.281 84.72C415.361 84.72 416.841 83.8267 417.721 82.04H423.761C423.121 84.1733 421.894 85.9333 420.081 87.32C418.268 88.68 416.041 89.36 413.401 89.36C411.268 89.36 409.348 88.8933 407.641 87.96C405.961 87 404.641 85.6533 403.681 83.92C402.748 82.1867 402.281 80.1867 402.281 77.92C402.281 75.6267 402.748 73.6133 403.681 71.88C404.614 70.1467 405.921 68.8133 407.601 67.88C409.281 66.9467 411.214 66.48 413.401 66.48C415.508 66.48 417.388 66.9333 419.041 67.84C420.721 68.7467 422.014 70.04 422.921 71.72C423.854 73.3733 424.321 75.28 424.321 77.44ZM418.521 75.84C418.494 74.4 417.974 73.2533 416.961 72.4C415.948 71.52 414.708 71.08 413.241 71.08C411.854 71.08 410.681 71.5067 409.721 72.36C408.788 73.1867 408.214 74.3467 408.001 75.84H418.521ZM434.008 59.4V89H428.408V59.4H434.008ZM449.381 89.36C447.248 89.36 445.328 88.8933 443.621 87.96C441.915 87 440.568 85.6533 439.581 83.92C438.621 82.1867 438.141 80.1867 438.141 77.92C438.141 75.6533 438.635 73.6533 439.621 71.92C440.635 70.1867 442.008 68.8533 443.741 67.92C445.475 66.96 447.408 66.48 449.541 66.48C451.675 66.48 453.608 66.96 455.341 67.92C457.075 68.8533 458.435 70.1867 459.421 71.92C460.435 73.6533 460.941 75.6533 460.941 77.92C460.941 80.1867 460.421 82.1867 459.381 83.92C458.368 85.6533 456.981 87 455.221 87.96C453.488 88.8933 451.541 89.36 449.381 89.36ZM449.381 84.48C450.395 84.48 451.341 84.24 452.221 83.76C453.128 83.2533 453.848 82.5067 454.381 81.52C454.915 80.5333 455.181 79.3333 455.181 77.92C455.181 75.8133 454.621 74.2 453.501 73.08C452.408 71.9333 451.061 71.36 449.461 71.36C447.861 71.36 446.515 71.9333 445.421 73.08C444.355 74.2 443.821 75.8133 443.821 77.92C443.821 80.0267 444.341 81.6533 445.381 82.8C446.448 83.92 447.781 84.48 449.381 84.48ZM470.649 70.04C471.369 69.0267 472.356 68.1867 473.609 67.52C474.889 66.8267 476.342 66.48 477.969 66.48C479.862 66.48 481.569 66.9467 483.089 67.88C484.636 68.8133 485.849 70.1467 486.729 71.88C487.636 73.5867 488.089 75.5733 488.089 77.84C488.089 80.1067 487.636 82.12 486.729 83.88C485.849 85.6133 484.636 86.96 483.089 87.92C481.569 88.88 479.862 89.36 477.969 89.36C476.342 89.36 474.902 89.0267 473.649 88.36C472.422 87.6933 471.422 86.8533 470.649 85.84V99.56H465.049V66.84H470.649V70.04ZM482.369 77.84C482.369 76.5067 482.089 75.36 481.529 74.4C480.996 73.4133 480.276 72.6667 479.369 72.16C478.489 71.6533 477.529 71.4 476.489 71.4C475.476 71.4 474.516 71.6667 473.609 72.2C472.729 72.7067 472.009 73.4533 471.449 74.44C470.916 75.4267 470.649 76.5867 470.649 77.92C470.649 79.2533 470.916 80.4133 471.449 81.4C472.009 82.3867 472.729 83.1467 473.609 83.68C474.516 84.1867 475.476 84.44 476.489 84.44C477.529 84.44 478.489 84.1733 479.369 83.64C480.276 83.1067 480.996 82.3467 481.529 81.36C482.089 80.3733 482.369 79.2 482.369 77.84ZM512.758 77.44C512.758 78.24 512.705 78.96 512.598 79.6H496.398C496.532 81.2 497.092 82.4533 498.078 83.36C499.065 84.2667 500.278 84.72 501.718 84.72C503.798 84.72 505.278 83.8267 506.158 82.04H512.198C511.558 84.1733 510.332 85.9333 508.518 87.32C506.705 88.68 504.478 89.36 501.838 89.36C499.705 89.36 497.785 88.8933 496.078 87.96C494.398 87 493.078 85.6533 492.118 83.92C491.185 82.1867 490.718 80.1867 490.718 77.92C490.718 75.6267 491.185 73.6133 492.118 71.88C493.052 70.1467 494.358 68.8133 496.038 67.88C497.718 66.9467 499.652 66.48 501.838 66.48C503.945 66.48 505.825 66.9333 507.478 67.84C509.158 68.7467 510.452 70.04 511.358 71.72C512.292 73.3733 512.758 75.28 512.758 77.44ZM506.958 75.84C506.932 74.4 506.412 73.2533 505.398 72.4C504.385 71.52 503.145 71.08 501.678 71.08C500.292 71.08 499.118 71.5067 498.158 72.36C497.225 73.1867 496.652 74.3467 496.438 75.84H506.958ZM522.446 70.28C523.166 69.1067 524.099 68.1867 525.246 67.52C526.419 66.8533 527.753 66.52 529.246 66.52V72.4H527.766C526.006 72.4 524.673 72.8133 523.766 73.64C522.886 74.4667 522.446 75.9067 522.446 77.96V89H516.846V66.84H522.446V70.28ZM541.498 89.36C539.684 89.36 538.058 89.04 536.618 88.4C535.178 87.7333 534.031 86.84 533.178 85.72C532.351 84.6 531.898 83.36 531.818 82H537.458C537.564 82.8533 537.978 83.56 538.698 84.12C539.444 84.68 540.364 84.96 541.458 84.96C542.524 84.96 543.351 84.7467 543.938 84.32C544.551 83.8933 544.858 83.3467 544.858 82.68C544.858 81.96 544.484 81.4267 543.738 81.08C543.018 80.7067 541.858 80.3067 540.258 79.88C538.604 79.48 537.244 79.0667 536.178 78.64C535.138 78.2133 534.231 77.56 533.458 76.68C532.711 75.8 532.338 74.6133 532.338 73.12C532.338 71.8933 532.684 70.7733 533.378 69.76C534.098 68.7467 535.111 67.9467 536.418 67.36C537.751 66.7733 539.311 66.48 541.098 66.48C543.738 66.48 545.844 67.1467 547.418 68.48C548.991 69.7867 549.858 71.56 550.018 73.8H544.658C544.578 72.92 544.204 72.2267 543.538 71.72C542.898 71.1867 542.031 70.92 540.938 70.92C539.924 70.92 539.138 71.1067 538.578 71.48C538.044 71.8533 537.778 72.3733 537.778 73.04C537.778 73.7867 538.151 74.36 538.898 74.76C539.644 75.1333 540.804 75.52 542.378 75.92C543.978 76.32 545.298 76.7333 546.338 77.16C547.378 77.5867 548.271 78.2533 549.018 79.16C549.791 80.04 550.191 81.2133 550.218 82.68C550.218 83.96 549.858 85.1067 549.138 86.12C548.444 87.1333 547.431 87.9333 546.098 88.52C544.791 89.08 543.258 89.36 541.498 89.36Z" fill="url(#paint0_linear_6_2)"/>
<path d="M50.4828 25H113.552L140 63.0527L81.2708 132L22 63.0527L50.4828 25Z" fill="url(#paint1_linear_6_2)"/>
<defs>
<linearGradient id="paint0_linear_6_2" x1="558" y1="74" x2="179.5" y2="74" gradientUnits="userSpaceOnUse">
<stop stop-color="#364FC7" stop-opacity="0.49"/>
<stop offset="1" stop-color="#4263EB"/>
</linearGradient>
<linearGradient id="paint1_linear_6_2" x1="81" y1="12.5861" x2="81" y2="134.132" gradientUnits="userSpaceOnUse">
<stop stop-color="#364FC7" stop-opacity="0.49"/>
<stop offset="1" stop-color="#4263EB"/>
</linearGradient>
</defs>
</svg>
