<svg width="264" height="157" viewBox="0 0 264 157" fill="none" xmlns="http://www.w3.org/2000/svg">
<path d="M5.932 128V124.472H14.332C14.7427 124.472 15.116 124.369 15.452 124.164C15.788 123.959 16.0587 123.688 16.264 123.352C16.4693 122.997 16.572 122.615 16.572 122.204C16.572 121.775 16.4693 121.392 16.264 121.056C16.0587 120.701 15.788 120.421 15.452 120.216C15.116 120.011 14.7427 119.908 14.332 119.908H11.056C9.95467 119.908 8.956 119.684 8.06 119.236C7.164 118.788 6.44533 118.144 5.904 117.304C5.38133 116.445 5.12 115.419 5.12 114.224C5.12 113.048 5.372 112.031 5.876 111.172C6.38 110.295 7.06133 109.613 7.92 109.128C8.77867 108.643 9.73067 108.4 10.776 108.4H19.288V111.928H11.168C10.7947 111.928 10.4493 112.031 10.132 112.236C9.81467 112.423 9.56267 112.675 9.376 112.992C9.208 113.309 9.124 113.664 9.124 114.056C9.124 114.448 9.208 114.803 9.376 115.12C9.56267 115.437 9.81467 115.689 10.132 115.876C10.4493 116.063 10.7947 116.156 11.168 116.156H14.556C15.7693 116.156 16.824 116.389 17.72 116.856C18.616 117.323 19.3067 117.976 19.792 118.816C20.296 119.656 20.548 120.636 20.548 121.756C20.548 123.081 20.2867 124.211 19.764 125.144C19.26 126.077 18.5693 126.787 17.692 127.272C16.8333 127.757 15.8813 128 14.836 128H5.932ZM23.3473 128V113.72H27.2113V128H23.3473ZM25.2793 112.012C24.626 112.012 24.0567 111.779 23.5713 111.312C23.1047 110.827 22.8713 110.257 22.8713 109.604C22.8713 108.951 23.1047 108.391 23.5713 107.924C24.0567 107.439 24.626 107.196 25.2793 107.196C25.9327 107.196 26.4927 107.439 26.9593 107.924C27.4447 108.391 27.6873 108.951 27.6873 109.604C27.6873 110.257 27.4447 110.827 26.9593 111.312C26.4927 111.779 25.9327 112.012 25.2793 112.012ZM35.7682 128C34.4989 128 33.5002 127.636 32.7722 126.908C32.0629 126.18 31.7082 125.191 31.7082 123.94V110.136H35.5442V123.828C35.5442 124.071 35.6282 124.285 35.7962 124.472C35.9829 124.64 36.1975 124.724 36.4402 124.724H39.5482V128H35.7682ZM29.2722 116.996V113.72H39.5482V116.996H29.2722ZM49.1371 128C47.5131 128 46.0944 127.692 44.8811 127.076C43.6864 126.441 42.7531 125.583 42.0811 124.5C41.4278 123.417 41.1011 122.204 41.1011 120.86C41.1011 119.348 41.4091 118.032 42.0251 116.912C42.6411 115.792 43.4811 114.924 44.5451 114.308C45.6091 113.692 46.8131 113.384 48.1571 113.384C49.7624 113.384 51.0598 113.72 52.0491 114.392C53.0571 115.064 53.7944 115.969 54.2611 117.108C54.7278 118.228 54.9611 119.479 54.9611 120.86C54.9611 121.047 54.9518 121.271 54.9331 121.532C54.9144 121.775 54.8864 121.961 54.8491 122.092H45.1891C45.3384 122.671 45.5904 123.156 45.9451 123.548C46.3184 123.94 46.7758 124.239 47.3171 124.444C47.8771 124.631 48.5024 124.724 49.1931 124.724H53.1691V128H49.1371ZM45.1611 119.516H51.1251C51.0878 119.161 51.0224 118.835 50.9291 118.536C50.8358 118.219 50.7051 117.939 50.5371 117.696C50.3691 117.453 50.1731 117.248 49.9491 117.08C49.7251 116.912 49.4638 116.781 49.1651 116.688C48.8664 116.595 48.5398 116.548 48.1851 116.548C47.7184 116.548 47.2984 116.632 46.9251 116.8C46.5704 116.968 46.2718 117.192 46.0291 117.472C45.7864 117.752 45.5904 118.069 45.4411 118.424C45.3104 118.779 45.2171 119.143 45.1611 119.516ZM64.8779 128V114.112C64.8779 113.048 65.1299 112.087 65.6339 111.228C66.1566 110.369 66.8472 109.688 67.7059 109.184C68.5832 108.661 69.5446 108.4 70.5899 108.4H77.6739V111.928H71.0379C70.4406 111.928 69.9272 112.143 69.4979 112.572C69.0872 113.001 68.8819 113.515 68.8819 114.112V117.276H76.7219V120.804H68.8819V128H64.8779ZM86.7816 128.336C85.3069 128.336 83.9909 128.009 82.8336 127.356C81.6762 126.684 80.7616 125.788 80.0896 124.668C79.4176 123.529 79.0816 122.26 79.0816 120.86C79.0816 119.46 79.4176 118.2 80.0896 117.08C80.7616 115.941 81.6762 115.045 82.8336 114.392C83.9909 113.72 85.3069 113.384 86.7816 113.384C88.2562 113.384 89.5722 113.72 90.7296 114.392C91.8869 115.045 92.8016 115.941 93.4736 117.08C94.1456 118.2 94.4816 119.46 94.4816 120.86C94.4816 122.26 94.1456 123.529 93.4736 124.668C92.8016 125.788 91.8869 126.684 90.7296 127.356C89.5722 128.009 88.2562 128.336 86.7816 128.336ZM86.7816 125.06C87.5656 125.06 88.2376 124.873 88.7976 124.5C89.3762 124.127 89.8149 123.623 90.1136 122.988C90.4309 122.353 90.5896 121.644 90.5896 120.86C90.5896 120.076 90.4309 119.367 90.1136 118.732C89.8149 118.097 89.3762 117.593 88.7976 117.22C88.2376 116.847 87.5656 116.66 86.7816 116.66C85.9976 116.66 85.3162 116.847 84.7376 117.22C84.1776 117.593 83.7389 118.097 83.4216 118.732C83.1229 119.367 82.9736 120.076 82.9736 120.86C82.9736 121.644 83.1229 122.353 83.4216 122.988C83.7389 123.623 84.1776 124.127 84.7376 124.5C85.3162 124.873 85.9976 125.06 86.7816 125.06ZM97.1448 128V117.78C97.1448 116.511 97.4995 115.521 98.2088 114.812C98.9368 114.084 99.9355 113.72 101.205 113.72H105.153V116.996H101.877C101.634 116.996 101.42 117.08 101.233 117.248C101.065 117.416 100.981 117.631 100.981 117.892V128H97.1448Z" fill="#364FC7"/>
<path d="M114.815 128V108.4H121.423C123.514 108.4 125.325 108.82 126.855 109.66C128.386 110.5 129.571 111.657 130.411 113.132C131.27 114.607 131.699 116.296 131.699 118.2C131.699 120.104 131.27 121.793 130.411 123.268C129.571 124.743 128.386 125.9 126.855 126.74C125.325 127.58 123.514 128 121.423 128H114.815ZM118.819 124.472H121.423C122.637 124.472 123.71 124.22 124.643 123.716C125.595 123.212 126.342 122.493 126.883 121.56C127.425 120.608 127.695 119.488 127.695 118.2C127.695 116.893 127.425 115.773 126.883 114.84C126.342 113.907 125.595 113.188 124.643 112.684C123.71 112.18 122.637 111.928 121.423 111.928H118.819V124.472ZM141.559 128C139.935 128 138.516 127.692 137.303 127.076C136.108 126.441 135.175 125.583 134.503 124.5C133.85 123.417 133.523 122.204 133.523 120.86C133.523 119.348 133.831 118.032 134.447 116.912C135.063 115.792 135.903 114.924 136.967 114.308C138.031 113.692 139.235 113.384 140.579 113.384C142.184 113.384 143.482 113.72 144.471 114.392C145.479 115.064 146.216 115.969 146.683 117.108C147.15 118.228 147.383 119.479 147.383 120.86C147.383 121.047 147.374 121.271 147.355 121.532C147.336 121.775 147.308 121.961 147.271 122.092H137.611C137.76 122.671 138.012 123.156 138.367 123.548C138.74 123.94 139.198 124.239 139.739 124.444C140.299 124.631 140.924 124.724 141.615 124.724H145.591V128H141.559ZM137.583 119.516H143.547C143.51 119.161 143.444 118.835 143.351 118.536C143.258 118.219 143.127 117.939 142.959 117.696C142.791 117.453 142.595 117.248 142.371 117.08C142.147 116.912 141.886 116.781 141.587 116.688C141.288 116.595 140.962 116.548 140.607 116.548C140.14 116.548 139.72 116.632 139.347 116.8C138.992 116.968 138.694 117.192 138.451 117.472C138.208 117.752 138.012 118.069 137.863 118.424C137.732 118.779 137.639 119.143 137.583 119.516ZM156.056 128.336C155.216 128.336 154.451 128.112 153.76 127.664C153.088 127.216 152.622 126.628 152.36 125.9L148.272 113.72H152.444L155.748 124.332C155.786 124.407 155.832 124.463 155.888 124.5C155.944 124.537 156.01 124.556 156.084 124.556C156.159 124.556 156.224 124.537 156.28 124.5C156.355 124.463 156.402 124.407 156.42 124.332L159.752 113.72H163.84L159.752 125.872C159.491 126.6 159.015 127.197 158.324 127.664C157.652 128.112 156.896 128.336 156.056 128.336ZM172.594 128C170.97 128 169.551 127.692 168.338 127.076C167.143 126.441 166.21 125.583 165.538 124.5C164.885 123.417 164.558 122.204 164.558 120.86C164.558 119.348 164.866 118.032 165.482 116.912C166.098 115.792 166.938 114.924 168.002 114.308C169.066 113.692 170.27 113.384 171.614 113.384C173.219 113.384 174.517 113.72 175.506 114.392C176.514 115.064 177.251 115.969 177.718 117.108C178.185 118.228 178.418 119.479 178.418 120.86C178.418 121.047 178.409 121.271 178.39 121.532C178.371 121.775 178.343 121.961 178.306 122.092H168.646C168.795 122.671 169.047 123.156 169.402 123.548C169.775 123.94 170.233 124.239 170.774 124.444C171.334 124.631 171.959 124.724 172.65 124.724H176.626V128H172.594ZM168.618 119.516H174.582C174.545 119.161 174.479 118.835 174.386 118.536C174.293 118.219 174.162 117.939 173.994 117.696C173.826 117.453 173.63 117.248 173.406 117.08C173.182 116.912 172.921 116.781 172.622 116.688C172.323 116.595 171.997 116.548 171.642 116.548C171.175 116.548 170.755 116.632 170.382 116.8C170.027 116.968 169.729 117.192 169.486 117.472C169.243 117.752 169.047 118.069 168.898 118.424C168.767 118.779 168.674 119.143 168.618 119.516ZM181.121 128V107.56H184.957V128H181.121ZM195.446 128.336C193.971 128.336 192.655 128.009 191.498 127.356C190.34 126.684 189.426 125.788 188.754 124.668C188.082 123.529 187.746 122.26 187.746 120.86C187.746 119.46 188.082 118.2 188.754 117.08C189.426 115.941 190.34 115.045 191.498 114.392C192.655 113.72 193.971 113.384 195.446 113.384C196.92 113.384 198.236 113.72 199.394 114.392C200.551 115.045 201.466 115.941 202.138 117.08C202.81 118.2 203.146 119.46 203.146 120.86C203.146 122.26 202.81 123.529 202.138 124.668C201.466 125.788 200.551 126.684 199.394 127.356C198.236 128.009 196.92 128.336 195.446 128.336ZM195.446 125.06C196.23 125.06 196.902 124.873 197.462 124.5C198.04 124.127 198.479 123.623 198.778 122.988C199.095 122.353 199.254 121.644 199.254 120.86C199.254 120.076 199.095 119.367 198.778 118.732C198.479 118.097 198.04 117.593 197.462 117.22C196.902 116.847 196.23 116.66 195.446 116.66C194.662 116.66 193.98 116.847 193.402 117.22C192.842 117.593 192.403 118.097 192.086 118.732C191.787 119.367 191.638 120.076 191.638 120.86C191.638 121.644 191.787 122.353 192.086 122.988C192.403 123.623 192.842 124.127 193.402 124.5C193.98 124.873 194.662 125.06 195.446 125.06ZM213.341 113.384C214.554 113.384 215.628 113.58 216.561 113.972C217.494 114.345 218.278 114.887 218.913 115.596C219.548 116.287 220.033 117.108 220.369 118.06C220.705 118.993 220.873 120.02 220.873 121.14C220.873 122.54 220.584 123.781 220.005 124.864C219.445 125.947 218.652 126.796 217.625 127.412C216.598 128.028 215.385 128.336 213.985 128.336C213.388 128.336 212.809 128.252 212.249 128.084C211.708 127.916 211.213 127.673 210.765 127.356C210.336 127.039 209.972 126.665 209.673 126.236H209.645V134.16H205.809V121.14C205.809 119.553 206.117 118.181 206.733 117.024C207.349 115.867 208.217 114.971 209.337 114.336C210.476 113.701 211.81 113.384 213.341 113.384ZM213.341 116.66C212.594 116.66 211.941 116.847 211.381 117.22C210.84 117.593 210.42 118.097 210.121 118.732C209.841 119.367 209.701 120.076 209.701 120.86C209.701 121.644 209.841 122.353 210.121 122.988C210.42 123.623 210.84 124.127 211.381 124.5C211.941 124.873 212.594 125.06 213.341 125.06C214.106 125.06 214.76 124.873 215.301 124.5C215.842 124.127 216.253 123.623 216.533 122.988C216.832 122.353 216.981 121.644 216.981 120.86C216.981 120.076 216.832 119.367 216.533 118.732C216.253 118.097 215.842 117.593 215.301 117.22C214.76 116.847 214.106 116.66 213.341 116.66ZM230.864 128C229.24 128 227.821 127.692 226.608 127.076C225.413 126.441 224.48 125.583 223.808 124.5C223.154 123.417 222.828 122.204 222.828 120.86C222.828 119.348 223.136 118.032 223.752 116.912C224.368 115.792 225.208 114.924 226.272 114.308C227.336 113.692 228.54 113.384 229.884 113.384C231.489 113.384 232.786 113.72 233.776 114.392C234.784 115.064 235.521 115.969 235.988 117.108C236.454 118.228 236.688 119.479 236.688 120.86C236.688 121.047 236.678 121.271 236.66 121.532C236.641 121.775 236.613 121.961 236.576 122.092H226.916C227.065 122.671 227.317 123.156 227.672 123.548C228.045 123.94 228.502 124.239 229.044 124.444C229.604 124.631 230.229 124.724 230.92 124.724H234.896V128H230.864ZM226.888 119.516H232.852C232.814 119.161 232.749 118.835 232.656 118.536C232.562 118.219 232.432 117.939 232.264 117.696C232.096 117.453 231.9 117.248 231.676 117.08C231.452 116.912 231.19 116.781 230.892 116.688C230.593 116.595 230.266 116.548 229.912 116.548C229.445 116.548 229.025 116.632 228.652 116.8C228.297 116.968 227.998 117.192 227.756 117.472C227.513 117.752 227.317 118.069 227.168 118.424C227.037 118.779 226.944 119.143 226.888 119.516ZM239.25 128V117.78C239.25 116.511 239.605 115.521 240.314 114.812C241.042 114.084 242.041 113.72 243.31 113.72H247.258V116.996H243.982C243.74 116.996 243.525 117.08 243.338 117.248C243.17 117.416 243.086 117.631 243.086 117.892V128H239.25ZM249.427 128V124.724H256.399C256.623 124.724 256.819 124.677 256.987 124.584C257.173 124.491 257.313 124.36 257.407 124.192C257.519 124.024 257.575 123.837 257.575 123.632C257.575 123.408 257.519 123.212 257.407 123.044C257.313 122.876 257.173 122.745 256.987 122.652C256.819 122.54 256.623 122.484 256.399 122.484H253.711C252.796 122.484 251.965 122.344 251.219 122.064C250.491 121.765 249.903 121.299 249.455 120.664C249.025 120.011 248.811 119.161 248.811 118.116C248.811 117.313 249.007 116.585 249.399 115.932C249.809 115.26 250.351 114.728 251.023 114.336C251.713 113.925 252.469 113.72 253.291 113.72H259.983V116.996H253.655C253.375 116.996 253.123 117.089 252.899 117.276C252.693 117.463 252.591 117.705 252.591 118.004C252.591 118.303 252.693 118.555 252.899 118.76C253.104 118.947 253.356 119.04 253.655 119.04H256.343C257.369 119.04 258.256 119.199 259.003 119.516C259.749 119.815 260.328 120.291 260.739 120.944C261.149 121.597 261.355 122.456 261.355 123.52C261.355 124.341 261.149 125.097 260.739 125.788C260.328 126.46 259.777 127.001 259.087 127.412C258.396 127.804 257.621 128 256.763 128H249.427Z" fill="#4263EB"/>
<path d="M111 17H157.5L177 44.9172L133.7 95.5L90 44.9172L111 17Z" fill="url(#paint0_linear_6_2)"/>
<defs>
<linearGradient id="paint0_linear_6_2" x1="133.5" y1="7.89264" x2="133.5" y2="97.0644" gradientUnits="userSpaceOnUse">
<stop stop-color="#364FC7" stop-opacity="0.49"/>
<stop offset="1" stop-color="#4263EB"/>
</linearGradient>
</defs>
</svg>
