<svg width="264" height="157" viewBox="0 0 264 157" fill="none" xmlns="http://www.w3.org/2000/svg">
<path d="M8.932 128V124.472H17.332C17.7427 124.472 18.116 124.369 18.452 124.164C18.788 123.959 19.0587 123.688 19.264 123.352C19.4693 122.997 19.572 122.615 19.572 122.204C19.572 121.775 19.4693 121.392 19.264 121.056C19.0587 120.701 18.788 120.421 18.452 120.216C18.116 120.011 17.7427 119.908 17.332 119.908H14.056C12.9547 119.908 11.956 119.684 11.06 119.236C10.164 118.788 9.44533 118.144 8.904 117.304C8.38133 116.445 8.12 115.419 8.12 114.224C8.12 113.048 8.372 112.031 8.876 111.172C9.38 110.295 10.0613 109.613 10.92 109.128C11.7787 108.643 12.7307 108.4 13.776 108.4H22.288V111.928H14.168C13.7947 111.928 13.4493 112.031 13.132 112.236C12.8147 112.423 12.5627 112.675 12.376 112.992C12.208 113.309 12.124 113.664 12.124 114.056C12.124 114.448 12.208 114.803 12.376 115.12C12.5627 115.437 12.8147 115.689 13.132 115.876C13.4493 116.063 13.7947 116.156 14.168 116.156H17.556C18.7693 116.156 19.824 116.389 20.72 116.856C21.616 117.323 22.3067 117.976 22.792 118.816C23.296 119.656 23.548 120.636 23.548 121.756C23.548 123.081 23.2867 124.211 22.764 125.144C22.26 126.077 21.5693 126.787 20.692 127.272C19.8333 127.757 18.8813 128 17.836 128H8.932ZM26.3473 128V113.72H30.2113V128H26.3473ZM28.2793 112.012C27.626 112.012 27.0567 111.779 26.5713 111.312C26.1047 110.827 25.8713 110.257 25.8713 109.604C25.8713 108.951 26.1047 108.391 26.5713 107.924C27.0567 107.439 27.626 107.196 28.2793 107.196C28.9327 107.196 29.4927 107.439 29.9593 107.924C30.4447 108.391 30.6873 108.951 30.6873 109.604C30.6873 110.257 30.4447 110.827 29.9593 111.312C29.4927 111.779 28.9327 112.012 28.2793 112.012ZM38.7682 128C37.4989 128 36.5002 127.636 35.7722 126.908C35.0629 126.18 34.7082 125.191 34.7082 123.94V110.136H38.5442V123.828C38.5442 124.071 38.6282 124.285 38.7962 124.472C38.9829 124.64 39.1975 124.724 39.4402 124.724H42.5482V128H38.7682ZM32.2722 116.996V113.72H42.5482V116.996H32.2722ZM52.1371 128C50.5131 128 49.0944 127.692 47.8811 127.076C46.6864 126.441 45.7531 125.583 45.0811 124.5C44.4278 123.417 44.1011 122.204 44.1011 120.86C44.1011 119.348 44.4091 118.032 45.0251 116.912C45.6411 115.792 46.4811 114.924 47.5451 114.308C48.6091 113.692 49.8131 113.384 51.1571 113.384C52.7624 113.384 54.0598 113.72 55.0491 114.392C56.0571 115.064 56.7944 115.969 57.2611 117.108C57.7278 118.228 57.9611 119.479 57.9611 120.86C57.9611 121.047 57.9518 121.271 57.9331 121.532C57.9144 121.775 57.8864 121.961 57.8491 122.092H48.1891C48.3384 122.671 48.5904 123.156 48.9451 123.548C49.3184 123.94 49.7758 124.239 50.3171 124.444C50.8771 124.631 51.5024 124.724 52.1931 124.724H56.1691V128H52.1371ZM48.1611 119.516H54.1251C54.0878 119.161 54.0224 118.835 53.9291 118.536C53.8358 118.219 53.7051 117.939 53.5371 117.696C53.3691 117.453 53.1731 117.248 52.9491 117.08C52.7251 116.912 52.4638 116.781 52.1651 116.688C51.8664 116.595 51.5398 116.548 51.1851 116.548C50.7184 116.548 50.2984 116.632 49.9251 116.8C49.5704 116.968 49.2718 117.192 49.0291 117.472C48.7864 117.752 48.5904 118.069 48.4411 118.424C48.3104 118.779 48.2171 119.143 48.1611 119.516ZM69.0259 128V116.996H66.5339V113.72H69.0259V111.62C69.0259 110.351 69.3806 109.361 70.0899 108.652C70.8179 107.924 71.8166 107.56 73.0859 107.56H77.1459V110.836H73.7579C73.5152 110.836 73.3006 110.92 73.1139 111.088C72.9459 111.256 72.8619 111.471 72.8619 111.732V113.72H76.5299V116.996H72.8619V128H69.0259ZM85.5433 128.336C84.0686 128.336 82.7526 128.009 81.5953 127.356C80.4379 126.684 79.5233 125.788 78.8513 124.668C78.1793 123.529 77.8433 122.26 77.8433 120.86C77.8433 119.46 78.1793 118.2 78.8513 117.08C79.5233 115.941 80.4379 115.045 81.5953 114.392C82.7526 113.72 84.0686 113.384 85.5433 113.384C87.0179 113.384 88.3339 113.72 89.4913 114.392C90.6486 115.045 91.5633 115.941 92.2353 117.08C92.9073 118.2 93.2433 119.46 93.2433 120.86C93.2433 122.26 92.9073 123.529 92.2353 124.668C91.5633 125.788 90.6486 126.684 89.4913 127.356C88.3339 128.009 87.0179 128.336 85.5433 128.336ZM85.5433 125.06C86.3273 125.06 86.9993 124.873 87.5593 124.5C88.1379 124.127 88.5766 123.623 88.8753 122.988C89.1926 122.353 89.3513 121.644 89.3513 120.86C89.3513 120.076 89.1926 119.367 88.8753 118.732C88.5766 118.097 88.1379 117.593 87.5593 117.22C86.9993 116.847 86.3273 116.66 85.5433 116.66C84.7593 116.66 84.0779 116.847 83.4993 117.22C82.9393 117.593 82.5006 118.097 82.1833 118.732C81.8846 119.367 81.7353 120.076 81.7353 120.86C81.7353 121.644 81.8846 122.353 82.1833 122.988C82.5006 123.623 82.9393 124.127 83.4993 124.5C84.0779 124.873 84.7593 125.06 85.5433 125.06ZM95.9066 128V117.78C95.9066 116.511 96.2612 115.521 96.9706 114.812C97.6986 114.084 98.6972 113.72 99.9666 113.72H103.915V116.996H100.639C100.396 116.996 100.181 117.08 99.9946 117.248C99.8266 117.416 99.7426 117.631 99.7426 117.892V128H95.9066Z" fill="#364FC7"/>
<path d="M120.129 128.336C118.935 128.336 117.861 128.149 116.909 127.776C115.976 127.384 115.192 126.843 114.557 126.152C113.923 125.443 113.437 124.621 113.101 123.688C112.765 122.736 112.597 121.7 112.597 120.58C112.597 119.161 112.877 117.92 113.437 116.856C114.016 115.773 114.819 114.924 115.845 114.308C116.891 113.692 118.104 113.384 119.485 113.384C120.083 113.384 120.652 113.468 121.193 113.636C121.753 113.804 122.257 114.047 122.705 114.364C123.153 114.681 123.517 115.055 123.797 115.484H123.825V107.56H127.661V120.58C127.661 122.148 127.353 123.52 126.737 124.696C126.121 125.853 125.253 126.749 124.133 127.384C123.013 128.019 121.679 128.336 120.129 128.336ZM120.129 125.06C120.895 125.06 121.548 124.873 122.089 124.5C122.631 124.127 123.041 123.623 123.321 122.988C123.62 122.353 123.769 121.644 123.769 120.86C123.769 120.076 123.62 119.367 123.321 118.732C123.041 118.097 122.631 117.593 122.089 117.22C121.548 116.847 120.895 116.66 120.129 116.66C119.383 116.66 118.729 116.847 118.169 117.22C117.628 117.593 117.208 118.097 116.909 118.732C116.629 119.367 116.489 120.076 116.489 120.86C116.489 121.644 116.629 122.353 116.909 122.988C117.208 123.623 117.628 124.127 118.169 124.5C118.729 124.873 119.383 125.06 120.129 125.06ZM138.352 128C136.728 128 135.309 127.692 134.096 127.076C132.901 126.441 131.968 125.583 131.296 124.5C130.643 123.417 130.316 122.204 130.316 120.86C130.316 119.348 130.624 118.032 131.24 116.912C131.856 115.792 132.696 114.924 133.76 114.308C134.824 113.692 136.028 113.384 137.372 113.384C138.977 113.384 140.275 113.72 141.264 114.392C142.272 115.064 143.009 115.969 143.476 117.108C143.943 118.228 144.176 119.479 144.176 120.86C144.176 121.047 144.167 121.271 144.148 121.532C144.129 121.775 144.101 121.961 144.064 122.092H134.404C134.553 122.671 134.805 123.156 135.16 123.548C135.533 123.94 135.991 124.239 136.532 124.444C137.092 124.631 137.717 124.724 138.408 124.724H142.384V128H138.352ZM134.376 119.516H140.34C140.303 119.161 140.237 118.835 140.144 118.536C140.051 118.219 139.92 117.939 139.752 117.696C139.584 117.453 139.388 117.248 139.164 117.08C138.94 116.912 138.679 116.781 138.38 116.688C138.081 116.595 137.755 116.548 137.4 116.548C136.933 116.548 136.513 116.632 136.14 116.8C135.785 116.968 135.487 117.192 135.244 117.472C135.001 117.752 134.805 118.069 134.656 118.424C134.525 118.779 134.432 119.143 134.376 119.516ZM152.849 128.336C152.009 128.336 151.244 128.112 150.553 127.664C149.881 127.216 149.414 126.628 149.153 125.9L145.065 113.72H149.237L152.541 124.332C152.578 124.407 152.625 124.463 152.681 124.5C152.737 124.537 152.802 124.556 152.877 124.556C152.952 124.556 153.017 124.537 153.073 124.5C153.148 124.463 153.194 124.407 153.213 124.332L156.545 113.72H160.633L156.545 125.872C156.284 126.6 155.808 127.197 155.117 127.664C154.445 128.112 153.689 128.336 152.849 128.336ZM169.387 128C167.763 128 166.344 127.692 165.131 127.076C163.936 126.441 163.003 125.583 162.331 124.5C161.678 123.417 161.351 122.204 161.351 120.86C161.351 119.348 161.659 118.032 162.275 116.912C162.891 115.792 163.731 114.924 164.795 114.308C165.859 113.692 167.063 113.384 168.407 113.384C170.012 113.384 171.31 113.72 172.299 114.392C173.307 115.064 174.044 115.969 174.511 117.108C174.978 118.228 175.211 119.479 175.211 120.86C175.211 121.047 175.202 121.271 175.183 121.532C175.164 121.775 175.136 121.961 175.099 122.092H165.439C165.588 122.671 165.84 123.156 166.195 123.548C166.568 123.94 167.026 124.239 167.567 124.444C168.127 124.631 168.752 124.724 169.443 124.724H173.419V128H169.387ZM165.411 119.516H171.375C171.338 119.161 171.272 118.835 171.179 118.536C171.086 118.219 170.955 117.939 170.787 117.696C170.619 117.453 170.423 117.248 170.199 117.08C169.975 116.912 169.714 116.781 169.415 116.688C169.116 116.595 168.79 116.548 168.435 116.548C167.968 116.548 167.548 116.632 167.175 116.8C166.82 116.968 166.522 117.192 166.279 117.472C166.036 117.752 165.84 118.069 165.691 118.424C165.56 118.779 165.467 119.143 165.411 119.516ZM177.914 128V107.56H181.75V128H177.914ZM192.239 128.336C190.764 128.336 189.448 128.009 188.291 127.356C187.133 126.684 186.219 125.788 185.547 124.668C184.875 123.529 184.539 122.26 184.539 120.86C184.539 119.46 184.875 118.2 185.547 117.08C186.219 115.941 187.133 115.045 188.291 114.392C189.448 113.72 190.764 113.384 192.239 113.384C193.713 113.384 195.029 113.72 196.187 114.392C197.344 115.045 198.259 115.941 198.931 117.08C199.603 118.2 199.939 119.46 199.939 120.86C199.939 122.26 199.603 123.529 198.931 124.668C198.259 125.788 197.344 126.684 196.187 127.356C195.029 128.009 193.713 128.336 192.239 128.336ZM192.239 125.06C193.023 125.06 193.695 124.873 194.255 124.5C194.833 124.127 195.272 123.623 195.571 122.988C195.888 122.353 196.047 121.644 196.047 120.86C196.047 120.076 195.888 119.367 195.571 118.732C195.272 118.097 194.833 117.593 194.255 117.22C193.695 116.847 193.023 116.66 192.239 116.66C191.455 116.66 190.773 116.847 190.195 117.22C189.635 117.593 189.196 118.097 188.879 118.732C188.58 119.367 188.431 120.076 188.431 120.86C188.431 121.644 188.58 122.353 188.879 122.988C189.196 123.623 189.635 124.127 190.195 124.5C190.773 124.873 191.455 125.06 192.239 125.06ZM210.134 113.384C211.347 113.384 212.421 113.58 213.354 113.972C214.287 114.345 215.071 114.887 215.706 115.596C216.341 116.287 216.826 117.108 217.162 118.06C217.498 118.993 217.666 120.02 217.666 121.14C217.666 122.54 217.377 123.781 216.798 124.864C216.238 125.947 215.445 126.796 214.418 127.412C213.391 128.028 212.178 128.336 210.778 128.336C210.181 128.336 209.602 128.252 209.042 128.084C208.501 127.916 208.006 127.673 207.558 127.356C207.129 127.039 206.765 126.665 206.466 126.236H206.438V134.16H202.602V121.14C202.602 119.553 202.91 118.181 203.526 117.024C204.142 115.867 205.01 114.971 206.13 114.336C207.269 113.701 208.603 113.384 210.134 113.384ZM210.134 116.66C209.387 116.66 208.734 116.847 208.174 117.22C207.633 117.593 207.213 118.097 206.914 118.732C206.634 119.367 206.494 120.076 206.494 120.86C206.494 121.644 206.634 122.353 206.914 122.988C207.213 123.623 207.633 124.127 208.174 124.5C208.734 124.873 209.387 125.06 210.134 125.06C210.899 125.06 211.553 124.873 212.094 124.5C212.635 124.127 213.046 123.623 213.326 122.988C213.625 122.353 213.774 121.644 213.774 120.86C213.774 120.076 213.625 119.367 213.326 118.732C213.046 118.097 212.635 117.593 212.094 117.22C211.553 116.847 210.899 116.66 210.134 116.66ZM227.657 128C226.033 128 224.614 127.692 223.401 127.076C222.206 126.441 221.273 125.583 220.601 124.5C219.947 123.417 219.621 122.204 219.621 120.86C219.621 119.348 219.929 118.032 220.545 116.912C221.161 115.792 222.001 114.924 223.065 114.308C224.129 113.692 225.333 113.384 226.677 113.384C228.282 113.384 229.579 113.72 230.569 114.392C231.577 115.064 232.314 115.969 232.781 117.108C233.247 118.228 233.481 119.479 233.481 120.86C233.481 121.047 233.471 121.271 233.453 121.532C233.434 121.775 233.406 121.961 233.369 122.092H223.709C223.858 122.671 224.11 123.156 224.465 123.548C224.838 123.94 225.295 124.239 225.837 124.444C226.397 124.631 227.022 124.724 227.713 124.724H231.689V128H227.657ZM223.681 119.516H229.645C229.607 119.161 229.542 118.835 229.449 118.536C229.355 118.219 229.225 117.939 229.057 117.696C228.889 117.453 228.693 117.248 228.469 117.08C228.245 116.912 227.983 116.781 227.685 116.688C227.386 116.595 227.059 116.548 226.705 116.548C226.238 116.548 225.818 116.632 225.445 116.8C225.09 116.968 224.791 117.192 224.549 117.472C224.306 117.752 224.11 118.069 223.961 118.424C223.83 118.779 223.737 119.143 223.681 119.516ZM236.043 128V117.78C236.043 116.511 236.398 115.521 237.107 114.812C237.835 114.084 238.834 113.72 240.103 113.72H244.051V116.996H240.775C240.533 116.996 240.318 117.08 240.131 117.248C239.963 117.416 239.879 117.631 239.879 117.892V128H236.043ZM246.22 128V124.724H253.192C253.416 124.724 253.612 124.677 253.78 124.584C253.966 124.491 254.106 124.36 254.2 124.192C254.312 124.024 254.368 123.837 254.368 123.632C254.368 123.408 254.312 123.212 254.2 123.044C254.106 122.876 253.966 122.745 253.78 122.652C253.612 122.54 253.416 122.484 253.192 122.484H250.504C249.589 122.484 248.758 122.344 248.012 122.064C247.284 121.765 246.696 121.299 246.248 120.664C245.818 120.011 245.604 119.161 245.604 118.116C245.604 117.313 245.8 116.585 246.192 115.932C246.602 115.26 247.144 114.728 247.816 114.336C248.506 113.925 249.262 113.72 250.084 113.72H256.776V116.996H250.448C250.168 116.996 249.916 117.089 249.692 117.276C249.486 117.463 249.384 117.705 249.384 118.004C249.384 118.303 249.486 118.555 249.692 118.76C249.897 118.947 250.149 119.04 250.448 119.04H253.136C254.162 119.04 255.049 119.199 255.796 119.516C256.542 119.815 257.121 120.291 257.532 120.944C257.942 121.597 258.148 122.456 258.148 123.52C258.148 124.341 257.942 125.097 257.532 125.788C257.121 126.46 256.57 127.001 255.88 127.412C255.189 127.804 254.414 128 253.556 128H246.22Z" fill="#4263EB"/>
<path d="M111 17H157.5L177 44.9172L133.7 95.5L90 44.9172L111 17Z" fill="url(#paint0_linear_6_2)"/>
<defs>
<linearGradient id="paint0_linear_6_2" x1="133.5" y1="7.89264" x2="133.5" y2="97.0644" gradientUnits="userSpaceOnUse">
<stop stop-color="#364FC7" stop-opacity="0.49"/>
<stop offset="1" stop-color="#4263EB"/>
</linearGradient>
</defs>
</svg>
